<?xml version="1.0" standalone="no"?>
<!DOCTYPE svg PUBLIC "-//W3C//DTD SVG 20010904//EN"
 "http://www.w3.org/TR/2001/REC-SVG-20010904/DTD/svg10.dtd">
<svg version="1.0" xmlns="http://www.w3.org/2000/svg"
 width="175.000000pt" height="175.000000pt" viewBox="0 0 175.000000 175.000000"
 preserveAspectRatio="xMidYMid meet">
<metadata>
Created by potrace 1.14, written by Peter Selinger 2001-2017
</metadata>
<g transform="translate(0.000000,175.000000) scale(0.100000,-0.100000)"
fill="#000000" stroke="none">
<path d="M695 1734 c-172 -37 -323 -123 -452 -257 -163 -170 -243 -368 -243
-602 0 -245 92 -458 272 -631 170 -163 370 -244 603 -244 233 0 433 81 603
244 180 173 272 386 272 631 0 233 -81 433 -244 603 -130 136 -281 220 -458
256 -95 20 -259 19 -353 0z m463 -420 c69 -34 160 -135 213 -237 38 -72 43
-90 44 -147 0 -81 -24 -119 -97 -156 -61 -31 -231 -55 -250 -36 -9 9 -8 12 3
16 8 2 53 16 102 30 151 46 186 99 133 204 -33 65 -145 193 -189 217 l-36 19
-26 -24 c-33 -31 -57 -98 -115 -320 -73 -281 -94 -332 -162 -406 -90 -97 -203
-81 -325 48 -102 108 -145 252 -112 372 13 47 21 39 43 -42 24 -91 57 -152
122 -222 70 -75 126 -107 161 -91 35 16 84 129 127 296 85 325 137 444 213
484 51 27 89 26 151 -5z"/>
</g>
</svg>